<svg width="24" height="24" viewBox="0 0 24 24" fill="none" xmlns="http://www.w3.org/2000/svg">
<path d="M10 20H14V19H10V20ZM7 23C6.45 23 5.979 22.804 5.587 22.412C5.195 22.02 4.99934 21.5493 5 21V3C5 2.45 5.196 1.979 5.588 1.587C5.98 1.195 6.45067 0.999335 7 1H17C17.55 1 18.021 1.196 18.413 1.588C18.805 1.98 19.0007 2.45067 19 3V21C19 21.55 18.804 22.021 18.412 22.413C18.02 22.805 17.5493 23.0007 17 23H7ZM7 16H17V6H7V16Z" fill="black"/>
<path d="M10.1198 11.2811C10.5158 11.2811 10.8955 11.1238 11.1755 10.8438C11.4555 10.5638 11.6129 10.184 11.6129 9.78801C11.6129 9.39202 11.4555 9.01225 11.1755 8.73224C10.8955 8.45223 10.5158 8.29492 10.1198 8.29492C9.72377 8.29492 9.344 8.45223 9.06399 8.73224C8.78399 9.01225 8.62668 9.39202 8.62668 9.78801C8.62668 10.184 8.78399 10.5638 9.06399 10.8438C9.344 11.1238 9.72377 11.2811 10.1198 11.2811ZM14.7649 10.1198C14.7649 10.2723 14.7349 10.4233 14.6765 10.5642C14.6182 10.7051 14.5326 10.8331 14.4248 10.941C14.317 11.0488 14.1889 11.1343 14.048 11.1927C13.9071 11.2511 13.7561 11.2811 13.6036 11.2811C13.4511 11.2811 13.3001 11.2511 13.1592 11.1927C13.0183 11.1343 12.8903 11.0488 12.7825 10.941C12.6746 10.8331 12.5891 10.7051 12.5307 10.5642C12.4724 10.4233 12.4423 10.2723 12.4423 10.1198C12.4423 9.81181 12.5647 9.51643 12.7825 9.29865C13.0003 9.08087 13.2956 8.95852 13.6036 8.95852C13.9116 8.95852 14.207 9.08087 14.4248 9.29865C14.6426 9.51643 14.7649 9.81181 14.7649 10.1198ZM7.63129 12.6912C7.63129 12.4932 7.70994 12.3034 7.84994 12.1633C7.98995 12.0233 8.17983 11.9447 8.37783 11.9447H11.8617C11.9274 11.9447 11.9911 11.9533 12.0518 11.9692C11.8079 12.2013 11.6138 12.4806 11.4813 12.7901C11.3488 13.0997 11.2807 13.4329 11.2811 13.7696C11.2811 13.9902 11.3096 14.2039 11.3637 14.4073C11.0402 14.5251 10.6327 14.5991 10.1198 14.5991C7.63129 14.5991 7.63129 12.8571 7.63129 12.8571V12.6912ZM15.9262 13.7696C15.9262 14.3416 15.699 14.8901 15.2945 15.2946C14.8901 15.699 14.3415 15.9263 13.7695 15.9263C13.1975 15.9263 12.649 15.699 12.2445 15.2946C11.8401 14.8901 11.6129 14.3416 11.6129 13.7696C11.6129 13.1976 11.8401 12.649 12.2445 12.2446C12.649 11.8401 13.1975 11.6129 13.7695 11.6129C14.3415 11.6129 14.8901 11.8401 15.2945 12.2446C15.699 12.649 15.9262 13.1976 15.9262 13.7696ZM13.9354 12.4424C13.9354 12.3984 13.918 12.3562 13.8868 12.3251C13.8557 12.294 13.8135 12.2765 13.7695 12.2765C13.7255 12.2765 13.6833 12.294 13.6522 12.3251C13.6211 12.3562 13.6036 12.3984 13.6036 12.4424V13.6037H12.4423C12.3983 13.6037 12.3562 13.6212 12.325 13.6523C12.2939 13.6834 12.2764 13.7256 12.2764 13.7696C12.2764 13.8136 12.2939 13.8558 12.325 13.8869C12.3562 13.918 12.3983 13.9355 12.4423 13.9355H13.6036V15.0968C13.6036 15.1408 13.6211 15.183 13.6522 15.2141C13.6833 15.2452 13.7255 15.2627 13.7695 15.2627C13.8135 15.2627 13.8557 15.2452 13.8868 15.2141C13.918 15.183 13.9354 15.1408 13.9354 15.0968V13.9355H15.0967C15.1407 13.9355 15.1829 13.918 15.214 13.8869C15.2451 13.8558 15.2626 13.8136 15.2626 13.7696C15.2626 13.7256 15.2451 13.6834 15.214 13.6523C15.1829 13.6212 15.1407 13.6037 15.0967 13.6037H13.9354V12.4424Z" fill="black"/>
</svg>
