<svg width="24" height="24" viewBox="0 0 24 24" fill="none" xmlns="http://www.w3.org/2000/svg">
<path d="M12 12H19C18.47 16.11 15.72 19.78 12 20.92V12H5V6.3L12 3.19M12 1L3 5V11C3 16.55 6.84 21.73 12 23C17.16 21.73 21 16.55 21 11V5L12 1Z" fill="black"/>
<path d="M7.209 8.011L7.809 9.31236L7.05 10.505L6 8.23226L7.209 8.011ZM10.5 10.2499V9.2336C10.764 9.08734 10.95 8.76106 10.95 8.37478C10.95 8.16101 10.89 7.96224 10.791 7.81223L11.382 7.38094C11.685 7.15967 11.79 6.67588 11.613 6.2971L11.199 5.39702C11.1146 5.21514 10.9761 5.08233 10.8137 5.02753C10.6513 4.97274 10.4782 5.0004 10.332 5.1045L7.893 6.87465C7.608 7.07342 7.509 7.53096 7.674 7.89099L8.124 8.86607C8.289 9.22235 8.658 9.34611 8.943 9.13984L9.507 8.73481C9.582 8.95608 9.723 9.13609 9.9 9.2336V10.2499C9.9 10.6625 10.17 11 10.5 11H12V10.2499H10.5Z" fill="black"/>
<path d="M15.194 15.0073L14.794 15.8749L15.3 16.67L16 15.1548L15.194 15.0073ZM13 16.5V15.8224C12.824 15.7249 12.7 15.5074 12.7 15.2499C12.7 15.1073 12.74 14.9748 12.806 14.8748L12.412 14.5873C12.21 14.4398 12.14 14.1173 12.258 13.8647L12.534 13.2647C12.5903 13.1434 12.6826 13.0549 12.7909 13.0184C12.8991 12.9818 13.0146 13.0003 13.112 13.0697L14.738 14.2498C14.928 14.3823 14.994 14.6873 14.884 14.9273L14.584 15.5774C14.474 15.8149 14.228 15.8974 14.038 15.7599L13.662 15.4899C13.612 15.6374 13.518 15.7574 13.4 15.8224V16.5C13.4 16.775 13.22 17 13 17H12V16.5H13Z" fill="black"/>
</svg>
