<svg width="12" height="24" viewBox="0 0 12 24" fill="none" xmlns="http://www.w3.org/2000/svg">
<path d="M10.5 21.8182H11.5V22.9091H0.5V21.8182H1.5V12.5455C1.5 12.4008 1.55268 12.2621 1.64645 12.1598C1.74021 12.0575 1.86739 12 2 12H10C10.1326 12 10.2598 12.0575 10.3536 12.1598C10.4473 12.2621 10.5 12.4008 10.5 12.5455V21.8182ZM9.5 21.8182V13.0909H2.5V21.8182H9.5ZM4 16.9091H5.5V18H4V16.9091ZM4 14.7273H5.5V15.8182H4V14.7273ZM4 19.0909H5.5V20.1818H4V19.0909ZM6.5 19.0909H8V20.1818H6.5V19.0909ZM6.5 16.9091H8V18H6.5V16.9091ZM6.5 14.7273H8V15.8182H6.5V14.7273Z" fill="black"/>
<path d="M6 11.4545L2.5 9.38181V6.10908L0.5 4.90908L6 1.63635L11.5 4.90908V9.27272H10.5V5.50908L9.5 6.10908V9.38181L6 11.4545ZM6 6.92726L9.425 4.90908L6 2.8909L2.575 4.90908L6 6.92726ZM6 10.2136L8.5 8.7409V6.68181L6 8.18181L3.5 6.68181V8.7409L6 10.2136Z" fill="black"/>
</svg>
