<svg width="24" height="24" viewBox="0 0 24 24" fill="none" xmlns="http://www.w3.org/2000/svg">
<path d="M3.99999 16H20V5H3.99999V16ZM13 18V20H17V22H6.99999V20H11V18H2.99199C2.86059 17.9992 2.73064 17.9725 2.60959 17.9214C2.48855 17.8702 2.37879 17.7957 2.28662 17.702C2.19446 17.6084 2.12169 17.4975 2.0725 17.3756C2.02331 17.2538 1.99867 17.1234 1.99999 16.992V4.008C1.99999 3.451 2.45499 3 2.99199 3H21.008C21.556 3 22 3.449 22 4.007V16.992C22 17.549 21.545 18 21.008 18H13Z" fill="black"/>
<path d="M10.7 14.3L8.4 12L10.7 9.7L10 9L7 12L10 15L10.7 14.3ZM13.3 14.3L15.6 12L13.3 9.7L14 9L17 12L14 15L13.3 14.3Z" fill="black"/>
</svg>
