<svg width="24" height="24" viewBox="0 0 24 24" fill="none" xmlns="http://www.w3.org/2000/svg">
<path d="M22.5244 17.4469L14.3259 3.20907C14.0885 2.80296 13.7488 2.4661 13.3408 2.232C12.9327 1.9979 12.4705 1.87473 12 1.87473C11.5296 1.87473 11.0673 1.9979 10.6593 2.232C10.2512 2.4661 9.91154 2.80296 9.67407 3.20907L1.47564 17.4469C1.24522 17.841 1.12378 18.2893 1.12378 18.7458C1.12378 19.2023 1.24522 19.6506 1.47564 20.0447C1.71047 20.4528 2.04966 20.7911 2.4584 21.0249C2.86714 21.2587 3.33072 21.3795 3.80157 21.375H20.1984C20.669 21.3792 21.1322 21.2582 21.5406 21.0245C21.9489 20.7907 22.2878 20.4526 22.5225 20.0447C22.7532 19.6508 22.875 19.2026 22.8753 18.746C22.8756 18.2895 22.7545 17.8411 22.5244 17.4469ZM20.5744 18.9188C20.5363 18.9837 20.4813 19.0372 20.4153 19.0735C20.3493 19.1098 20.2747 19.1276 20.1994 19.125H3.80157C3.72628 19.1276 3.65169 19.1098 3.58568 19.0735C3.51968 19.0372 3.4647 18.9837 3.42657 18.9188C3.39423 18.8662 3.37711 18.8057 3.37711 18.7439C3.37711 18.6822 3.39423 18.6217 3.42657 18.5691L11.625 4.33126C11.6653 4.26836 11.7208 4.2166 11.7863 4.18075C11.8518 4.1449 11.9253 4.12611 12 4.12611C12.0747 4.12611 12.1482 4.1449 12.2137 4.18075C12.2793 4.2166 12.3347 4.26836 12.375 4.33126L20.5734 18.5691C20.6059 18.6216 20.6232 18.682 20.6234 18.7438C20.6235 18.8055 20.6066 18.8661 20.5744 18.9188Z" fill="black"/>
<path d="M10 12.5C10.4603 12.5 10.8334 12.1269 10.8334 11.6667C10.8334 11.2064 10.4603 10.8333 10 10.8333C9.53978 10.8333 9.16669 11.2064 9.16669 11.6667C9.16669 12.1269 9.53978 12.5 10 12.5Z" fill="black"/>
<path d="M11.6209 13.3792C11.4584 13.2167 11.1792 12.9167 10.6375 12.9167H9.57919C8.43335 12.9125 7.50002 11.9792 7.50002 10.8333H6.66669C6.66669 12.15 7.54585 13.2667 8.75002 13.6292V19.1667H9.58335V16.6667H10.4167V19.1667H11.25V14.1875L12.8959 15.8333L13.4834 15.2458L11.6209 13.3792Z" fill="black"/>
<path d="M15.0906 13.2528L12.341 16L12 15.659L14.7472 12.9094L15.0906 13.2528ZM16.1817 12.549L16.3254 12.4053L16.133 12.2129L16.2888 12.057L15.943 11.7112L15.7871 11.867L15.5947 11.6746L15.451 11.8183C15.0273 11.4725 14.5499 11.1948 14.0385 11L13.8363 11.4359C14.2625 11.66 14.6547 11.9303 15.02 12.2494L14.8982 12.3712L15.6288 13.1018L15.7506 12.98C16.0697 13.3453 16.34 13.7375 16.5641 14.1637L17 13.9615C16.8052 13.4501 16.5275 12.9727 16.1817 12.549Z" fill="black"/>
</svg>
